<svg xmlns="http://www.w3.org/2000/svg" viewBox="0 0 100 100">
  <defs>
    <linearGradient id="gradient" x1="0%" y1="0%" x2="100%" y2="100%">
      <stop offset="0%" style="stop-color:#3B82F6"/>
      <stop offset="50%" style="stop-color:#8B5CF6"/>
      <stop offset="100%" style="stop-color:#EC4899"/>
    </linearGradient>
    <linearGradient id="skin" x1="0%" y1="0%" x2="100%" y2="100%">
      <stop offset="0%" style="stop-color:#FDBF8F"/>
      <stop offset="100%" style="stop-color:#F7A56A"/>
    </linearGradient>
    <linearGradient id="hair" x1="0%" y1="0%" x2="100%" y2="100%">
      <stop offset="0%" style="stop-color:#2D2D2D"/>
      <stop offset="100%" style="stop-color:#1A1A1A"/>
    </linearGradient>
  </defs>
  
  <!-- Background -->
  <rect width="100" height="100" rx="20" fill="url(#gradient)"/>
  
  <!-- Body/Shoulders -->
  <circle cx="50" cy="75" r="25" fill="white" opacity="0.9"/>
  
  <!-- Head -->
  <circle cx="50" cy="48" r="18" fill="url(#skin)"/>
  
  <!-- Hair -->
  <path d="M32 42 Q32 28 50 28 Q68 28 68 42 Q68 38 50 38 Q32 38 32 42" fill="url(#hair)"/>
  <path d="M32 42 Q30 50 34 55" fill="none" stroke="url(#hair)" stroke-width="3" stroke-linecap="round"/>
  <path d="M68 42 Q70 50 66 55" fill="none" stroke="url(#hair)" stroke-width="3" stroke-linecap="round"/>
  
  <!-- Eyes -->
  <circle cx="44" cy="48" r="2.5" fill="#2D2D2D"/>
  <circle cx="56" cy="48" r="2.5" fill="#2D2D2D"/>
  
  <!-- Smile -->
  <path d="M44 54 Q50 58 56 54" fill="none" stroke="#E5735A" stroke-width="2" stroke-linecap="round"/>
  
  <!-- Glasses -->
  <circle cx="44" cy="48" r="4" fill="none" stroke="white" stroke-width="1.5" opacity="0.8"/>
  <circle cx="56" cy="48" r="4" fill="none" stroke="white" stroke-width="1.5" opacity="0.8"/>
  <line x1="48" y1="48" x2="52" y2="48" stroke="white" stroke-width="1.5" opacity="0.8"/>
</svg>
